<svg xmlns="http://www.w3.org/2000/svg" xmlns:xlink="http://www.w3.org/1999/xlink" width="500" zoomAndPan="magnify" viewBox="0 0 375 374.999991" height="500" preserveAspectRatio="xMidYMid meet" version="1.0"><defs><clipPath id="0658267619"><path d="M 0 0 L 374.980469 0 L 374.980469 374.980469 L 0 374.980469 Z M 0 0 " clip-rule="nonzero"/></clipPath><clipPath id="a42deffb47"><path d="M 187.488281 0 C 83.941406 0 0 83.941406 0 187.488281 C 0 291.039062 83.941406 374.980469 187.488281 374.980469 C 291.039062 374.980469 374.980469 291.039062 374.980469 187.488281 C 374.980469 83.941406 291.039062 0 187.488281 0 Z M 187.488281 0 " clip-rule="nonzero"/></clipPath><clipPath id="827ae4a173"><path d="M 68 101 L 273 101 L 273 306 L 68 306 Z M 68 101 " clip-rule="nonzero"/></clipPath><clipPath id="552368735c"><path d="M 68.039062 136.148438 L 183.660156 20.523438 L 353.40625 190.269531 L 237.785156 305.894531 Z M 68.039062 136.148438 " clip-rule="nonzero"/></clipPath><clipPath id="84db2ed6b3"><path d="M -178.019531 382.207031 L 183.609375 20.574219 L 353.355469 190.320312 L -8.277344 551.953125 Z M -178.019531 382.207031 " clip-rule="nonzero"/></clipPath><clipPath id="09d03db527"><path d="M -178.019531 382.207031 L 183.609375 20.574219 L 353.355469 190.320312 L -8.277344 551.953125 Z M -178.019531 382.207031 " clip-rule="nonzero"/></clipPath><clipPath id="b793fc3a63"><path d="M 100 132 L 242 132 L 242 274 L 100 274 Z M 100 132 " clip-rule="nonzero"/></clipPath><clipPath id="0886040390"><path d="M 20.132812 181.855469 L 69.453125 132.535156 L 241.277344 304.359375 L 191.957031 353.679688 Z M 20.132812 181.855469 " clip-rule="nonzero"/></clipPath><clipPath id="fa74bb1e70"><path d="M 19.644531 182.339844 L 70.027344 131.960938 L 241.851562 303.785156 L 191.472656 354.167969 Z M 19.644531 182.339844 " clip-rule="nonzero"/></clipPath><clipPath id="7a42cdc64b"><path d="M 19.644531 182.339844 L 382.921875 -180.933594 L 554.746094 -9.109375 L 191.472656 354.167969 Z M 19.644531 182.339844 " clip-rule="nonzero"/></clipPath></defs><g clip-path="url(#0658267619)"><g clip-path="url(#a42deffb47)"><path stroke-linecap="butt" transform="matrix(3.479087, 0, 0, 3.479087, 0.0000045, 0.000000000000565165)" fill="none" stroke-linejoin="miter" d="M 53.890073 -0.000000000000162446 C 24.127419 -0.000000000000162446 -0.00000129344 24.127421 -0.00000129344 53.890074 C -0.00000129344 83.653851 24.127419 107.781271 53.890073 107.781271 C 83.653849 107.781271 107.78127 83.653851 107.78127 53.890074 C 107.78127 24.127421 83.653849 -0.000000000000162446 53.890073 -0.000000000000162446 Z M 53.890073 -0.000000000000162446 " stroke="#000000" stroke-width="3.44918" stroke-opacity="1" stroke-miterlimit="4"/></g></g><g clip-path="url(#827ae4a173)"><g clip-path="url(#552368735c)"><g clip-path="url(#84db2ed6b3)"><g clip-path="url(#09d03db527)"><path fill="#000000" d="M 272.015625 261.824219 L 272.511719 119.503906 C 272.546875 109.632812 264.457031 101.542969 254.585938 101.578125 L 112.105469 101.914062 C 102.238281 101.949219 94.089844 110.09375 94.054688 119.964844 C 94.023438 129.835938 102.113281 137.925781 111.980469 137.890625 L 211 137.546875 L -92.996094 441.546875 C -100.027344 448.574219 -100.066406 460.035156 -93.085938 467.015625 C -86.105469 473.996094 -74.644531 473.957031 -67.613281 466.929688 L 236.222656 163.089844 L 235.878906 262.109375 C 235.863281 267.203125 237.917969 271.492188 241.25 274.824219 C 244.578125 278.15625 249.03125 280.050781 253.964844 280.195312 C 263.835938 279.839844 271.984375 271.695312 272.015625 261.824219 Z M 272.015625 261.824219 " fill-opacity="1" fill-rule="nonzero"/></g></g></g></g><g clip-path="url(#b793fc3a63)"><g clip-path="url(#0886040390)"><g clip-path="url(#fa74bb1e70)"><g clip-path="url(#7a42cdc64b)"><path fill="#000000" d="M 473.011719 62.671875 L 472.96875 -80.851562 C 472.96875 -90.804688 464.777344 -98.996094 454.824219 -98.996094 L 311.140625 -99.199219 C 301.1875 -99.203125 293.003906 -91.019531 293.007812 -81.066406 C 293.007812 -71.113281 301.199219 -62.921875 311.152344 -62.917969 L 411.007812 -62.890625 L 105.59375 242.527344 C 98.53125 249.585938 98.535156 261.144531 105.601562 268.210938 C 112.667969 275.277344 124.226562 275.28125 131.285156 268.21875 L 436.539062 -37.035156 L 436.570312 62.820312 C 436.570312 67.957031 438.660156 72.292969 442.03125 75.664062 C 445.40625 79.039062 449.902344 80.964844 454.878906 81.125 C 464.832031 80.808594 473.015625 72.625 473.011719 62.671875 Z M 473.011719 62.671875 " fill-opacity="1" fill-rule="nonzero"/></g></g></g></g></svg>