<svg xmlns="http://www.w3.org/2000/svg" xmlns:xlink="http://www.w3.org/1999/xlink" width="1920" zoomAndPan="magnify" viewBox="0 0 1440 809.999993" height="1080" preserveAspectRatio="xMidYMid meet" version="1.0"><path fill="#58d999" d="M 1069.917969 179.28125 C 1089.179688 148.859375 1121.757812 127.980469 1160.277344 124.558594 C 1204.558594 120.78125 1243.617188 140.578125 1251.71875 187.019531 C 1252.4375 191.339844 1251.539062 195.660156 1249.378906 199.257812 C 1251.898438 202.5 1253.339844 206.820312 1252.976562 211.320312 L 1249.558594 249.300781 C 1249.558594 250.917969 1249.199219 252.539062 1248.476562 254.160156 C 1232.816406 296.460938 1192.679688 327.058594 1147.679688 331.019531 C 1107.179688 334.4375 1075.5 317.160156 1060.558594 287.097656 L 1057.5 322.199219 C 1056.597656 331.199219 1049.398438 338.398438 1040.578125 339.117188 L 1000.078125 342.71875 C 993.417969 343.257812 987.117188 340.199219 983.699219 334.4375 L 953.460938 284.21875 L 949.320312 331.738281 C 948.417969 340.558594 941.21875 347.757812 932.398438 348.660156 L 891.898438 352.078125 C 885.78125 352.617188 880.378906 350.097656 876.78125 345.777344 C 873.898438 350.640625 868.5 354.238281 862.558594 354.777344 L 822.058594 358.199219 C 816.121094 358.738281 810.539062 356.21875 807.121094 352.078125 C 804.058594 356.9375 798.839844 360.359375 792.898438 360.71875 L 752.398438 364.320312 C 743.039062 365.21875 735.121094 358.558594 733.679688 349.558594 L 730.621094 356.578125 C 727.917969 362.699219 721.980469 367.019531 715.320312 367.558594 L 682.558594 370.4375 C 674.28125 371.160156 666.71875 366.117188 664.378906 358.019531 L 662.582031 351.71875 L 662.039062 356.757812 C 661.320312 365.757812 654.121094 372.957031 645.121094 373.679688 L 604.800781 377.277344 C 593.820312 378.179688 584.820312 369.179688 585.902344 358.378906 L 588.0625 332.097656 C 568.441406 363.058594 535.140625 385.019531 497.160156 388.257812 C 456.121094 391.859375 423.179688 372.597656 408.421875 340.917969 C 390.421875 376.917969 355.863281 400.320312 314.820312 403.738281 C 254.160156 409.140625 214.5625 367.019531 219.78125 307.078125 C 224.820312 248.757812 268.921875 202.5 327.601562 197.460938 C 366.660156 194.039062 400.140625 210.417969 414.359375 244.257812 C 433.441406 209.519531 469.082031 184.679688 509.941406 181.078125 C 550.082031 177.480469 582.121094 195.660156 597.242188 226.078125 L 600.300781 190.980469 C 601.199219 181.980469 608.402344 174.78125 617.21875 174.058594 L 665.101562 169.738281 C 673.199219 169.199219 680.582031 173.878906 683.101562 181.621094 L 705.78125 251.097656 L 742.679688 172.441406 C 745.558594 166.320312 751.320312 162.359375 757.800781 161.640625 L 805.5 157.5 C 811.441406 156.960938 816.839844 159.480469 820.441406 163.800781 C 823.5 158.941406 828.539062 155.519531 834.480469 154.980469 L 874.980469 151.378906 C 881.097656 150.839844 886.679688 153.539062 890.097656 157.859375 C 893.160156 152.820312 898.378906 149.398438 904.5 148.859375 L 944.820312 145.257812 C 951.480469 144.71875 957.960938 147.960938 961.378906 153.71875 L 991.617188 204.121094 L 995.757812 156.238281 C 996.480469 147.417969 1003.679688 140.21875 1012.679688 139.5 L 1053.179688 135.898438 C 1063.980469 135 1072.980469 144 1071.898438 154.800781 Z M 400.859375 285.300781 L 358.921875 288.898438 C 351.179688 289.621094 344.160156 285.300781 341.28125 278.277344 C 338.402344 271.257812 333 269.820312 325.980469 270.539062 C 307.441406 272.160156 298.261719 288.359375 296.640625 305.460938 C 295.382812 319.859375 298.800781 332.460938 315.542969 331.019531 C 325.441406 330.300781 332.820312 325.078125 337.5 316.257812 C 340.5625 310.859375 345.960938 307.078125 352.261719 306.539062 L 396.722656 302.757812 C 397.800781 302.578125 398.699219 302.578125 399.78125 302.757812 C 399.78125 298.800781 399.78125 295.019531 400.140625 291.058594 C 400.320312 289.078125 400.5 287.097656 400.859375 285.300781 Z M 1150.917969 199.800781 L 1166.9375 198.359375 C 1164.417969 197.820312 1161.539062 197.820312 1159.019531 198 C 1156.136719 198.359375 1153.4375 198.898438 1150.917969 199.800781 Z M 477.359375 289.4375 C 475.921875 305.460938 480.601562 316.800781 498.242188 315.359375 C 517.679688 313.558594 527.941406 297.898438 529.378906 279.71875 C 530.820312 263.878906 526.320312 252.179688 508.859375 253.800781 C 489.0625 255.597656 478.980469 270.71875 477.359375 289.4375 Z M 977.21875 488.699219 L 986.039062 387.71875 C 986.757812 378.898438 993.957031 371.878906 1002.597656 371.160156 L 1062.71875 365.757812 C 1069.378906 365.21875 1075.5 368.277344 1078.917969 374.039062 L 1137.957031 472.320312 L 1146.417969 373.679688 C 1147.316406 364.859375 1154.339844 357.839844 1163.160156 357.117188 L 1223.097656 351.71875 C 1233.898438 350.820312 1242.71875 359.820312 1241.816406 370.4375 L 1220.21875 618.839844 C 1219.5 627.65625 1212.476562 634.679688 1203.660156 635.398438 L 1143.539062 640.796875 C 1137.058594 641.335938 1130.757812 638.097656 1127.339844 632.519531 L 1068.296875 534.777344 L 1059.839844 632.878906 C 1059.117188 641.699219 1051.917969 648.71875 1043.277344 649.4375 L 983.160156 654.835938 C 972.539062 655.738281 963.539062 646.738281 964.4375 636.117188 L 972.539062 543.777344 C 954.71875 611.816406 895.140625 664.917969 823.5 671.21875 C 786.960938 674.457031 750.238281 664.738281 723.601562 638.636719 C 707.398438 622.617188 697.140625 603.179688 692.28125 581.9375 C 670.5 643.136719 614.339844 689.398438 547.5625 695.335938 C 511.019531 698.578125 474.300781 688.859375 447.660156 662.757812 C 432.902344 648.179688 423.179688 630.71875 417.78125 611.636719 C 417.601562 613.078125 417.601562 614.339844 417.421875 615.597656 C 412.382812 674.996094 360.363281 711.71875 304.382812 716.578125 C 246.78125 721.617188 192.601562 695.699219 196.023438 630.179688 C 196.382812 625.679688 198.183594 621.71875 201.242188 618.476562 C 204.300781 615.238281 208.261719 613.257812 212.761719 612.898438 L 271.621094 607.679688 C 269.460938 607.316406 268.023438 606.957031 267.121094 606.597656 C 226.261719 594.539062 201.601562 570.957031 205.921875 525.058594 C 211.320312 465.296875 263.160156 432.179688 318.78125 427.320312 C 375.839844 422.457031 425.519531 447.839844 423.359375 511.378906 C 423.179688 515.878906 421.382812 520.019531 418.320312 523.257812 C 415.261719 526.5 411.121094 528.476562 406.621094 529.019531 L 347.941406 534.058594 C 352.082031 535.136719 355.140625 536.039062 356.761719 536.398438 C 383.402344 544.859375 403.742188 558 412.742188 579.777344 C 412.5625 573.296875 412.742188 566.816406 413.28125 560.339844 C 420.300781 479.339844 486.722656 412.738281 567.71875 405.539062 C 604.082031 402.480469 640.621094 411.839844 667.261719 437.757812 C 683.460938 453.777344 693.539062 473.398438 698.398438 494.457031 C 720.359375 433.257812 777.058594 387.359375 843.660156 381.417969 C 880.019531 378.359375 916.558594 387.71875 943.199219 413.636719 C 964.078125 434.160156 974.699219 460.796875 977.21875 488.699219 Z M 304.921875 519.839844 C 306.722656 522.179688 316.441406 525.597656 327.0625 528.476562 C 324.363281 525.417969 322.921875 521.457031 322.921875 517.136719 C 323.101562 511.558594 320.582031 511.019531 315.179688 511.378906 C 309.421875 511.738281 305.460938 513.359375 304.921875 519.476562 C 304.921875 519.660156 304.921875 519.660156 304.921875 519.839844 Z M 290.523438 612.359375 C 293.402344 615.417969 295.382812 619.738281 295.382812 624.417969 C 295.382812 631.976562 297.179688 633.597656 304.742188 632.878906 C 310.320312 632.519531 318.421875 630.539062 318.960938 623.699219 C 318.960938 623.519531 318.960938 622.976562 318.960938 622.617188 C 317.523438 619.738281 303.660156 615.777344 290.523438 612.359375 Z M 509.941406 557.097656 C 507.421875 586.078125 518.582031 607.496094 550.441406 604.796875 C 583.558594 601.917969 602.28125 575.097656 604.980469 543.597656 C 607.5 514.617188 596.878906 493.019531 565.019531 495.71875 C 531.179688 498.777344 512.820312 524.878906 509.941406 557.097656 Z M 785.878906 532.976562 C 783.359375 561.957031 794.519531 583.378906 826.378906 580.679688 C 859.5 577.796875 878.21875 550.976562 880.917969 519.476562 C 883.4375 490.5 872.820312 468.898438 840.960938 471.597656 C 807.121094 474.660156 788.757812 500.578125 785.878906 532.976562 Z M 785.878906 532.976562 " fill-opacity="1" fill-rule="evenodd"/><path fill="#58d999" d="M 1032.480469 147.058594 C 1051.738281 116.460938 1084.136719 95.578125 1122.839844 92.339844 C 1167.117188 88.378906 1206.179688 108.179688 1214.097656 154.800781 C 1214.816406 158.941406 1214.097656 163.257812 1211.9375 166.859375 C 1214.457031 170.28125 1215.898438 174.417969 1215.539062 179.101562 L 1212.117188 217.078125 C 1211.9375 218.699219 1211.578125 220.320312 1211.039062 221.757812 C 1195.378906 264.058594 1155.238281 294.660156 1110.238281 298.621094 C 1069.738281 302.21875 1038.058594 284.757812 1022.9375 254.878906 L 1020.058594 289.980469 C 1019.160156 298.800781 1011.957031 306 1003.140625 306.898438 L 962.640625 310.320312 C 955.980469 310.859375 949.679688 307.800781 946.257812 302.039062 L 915.839844 251.820312 L 911.699219 299.339844 C 910.980469 308.339844 903.78125 315.539062 894.960938 316.257812 L 854.460938 319.859375 C 848.339844 320.398438 842.757812 317.699219 839.339844 313.378906 C 836.28125 318.417969 831.058594 321.839844 825.121094 322.378906 L 784.621094 325.980469 C 778.5 326.519531 773.101562 324 769.679688 319.679688 C 766.621094 324.539062 761.398438 327.960938 755.460938 328.5 L 714.960938 332.097656 C 705.601562 332.820312 697.5 326.160156 696.238281 317.339844 L 693.179688 324.179688 C 690.480469 330.480469 684.539062 334.617188 677.878906 335.339844 L 645.121094 338.21875 C 636.839844 338.9375 629.28125 333.71875 626.941406 325.800781 L 624.960938 319.5 L 624.601562 324.539062 C 623.878906 333.359375 616.679688 340.558594 607.679688 341.460938 L 567.179688 344.878906 C 556.378906 345.957031 547.378906 336.960938 548.28125 325.980469 L 550.621094 299.699219 C 531 330.839844 497.699219 352.617188 459.539062 356.039062 C 418.679688 359.640625 385.742188 340.378906 370.980469 308.699219 C 352.980469 344.519531 318.242188 367.917969 277.382812 371.519531 C 216.722656 376.738281 177.121094 334.617188 182.34375 274.679688 C 187.382812 216.539062 231.480469 170.28125 290.160156 165.058594 C 329.222656 161.640625 362.703125 178.019531 376.921875 211.859375 C 396 177.121094 431.640625 152.28125 472.5 148.679688 C 512.640625 145.257812 544.679688 163.441406 559.800781 193.679688 L 562.859375 158.578125 C 563.761719 149.757812 570.960938 142.378906 579.78125 141.660156 L 627.660156 137.519531 C 635.761719 136.800781 643.140625 141.660156 645.660156 149.398438 L 668.339844 218.699219 L 705.238281 140.039062 C 707.941406 134.101562 713.878906 129.960938 720.359375 129.417969 L 768.058594 125.28125 C 774 124.738281 779.398438 127.261719 783 131.398438 C 785.878906 126.539062 791.101562 123.121094 797.039062 122.578125 L 837.539062 119.160156 C 843.660156 118.621094 849.238281 121.140625 852.660156 125.460938 C 855.71875 120.601562 860.9375 117 866.878906 116.640625 L 907.378906 113.039062 C 914.039062 112.5 920.519531 115.558594 923.9375 121.320312 L 954.179688 171.71875 L 958.320312 124.019531 C 959.039062 115.019531 966.238281 107.820312 975.058594 107.101562 L 1015.558594 103.5 C 1026.539062 102.601562 1035.539062 111.601562 1034.457031 122.398438 Z M 363.421875 252.898438 L 321.480469 256.679688 C 313.742188 257.21875 306.722656 253.078125 303.839844 245.878906 C 300.960938 239.039062 295.5625 237.597656 288.542969 238.140625 C 270 239.757812 260.640625 255.960938 259.203125 273.058594 C 257.941406 287.460938 261.363281 300.238281 278.101562 298.800781 C 288 297.898438 295.382812 292.679688 300.0625 284.039062 C 302.941406 278.460938 308.523438 274.859375 314.820312 274.320312 L 359.28125 270.359375 C 360.359375 270.179688 361.261719 270.179688 362.339844 270.359375 C 362.160156 266.578125 362.339844 262.621094 362.703125 258.660156 C 362.882812 256.859375 363.0625 254.878906 363.421875 252.898438 Z M 1113.476562 167.398438 L 1129.5 165.960938 C 1126.976562 165.417969 1124.097656 165.601562 1121.578125 165.78125 C 1118.699219 165.960938 1116 166.5 1113.476562 167.398438 Z M 439.921875 257.039062 C 438.480469 273.058594 443.160156 284.578125 460.800781 282.960938 C 480.0625 281.339844 490.5 265.679688 491.941406 247.320312 C 493.378906 231.480469 488.882812 219.960938 471.242188 221.398438 C 451.441406 223.199219 441.542969 238.320312 439.921875 257.039062 Z M 939.777344 456.480469 L 948.597656 355.320312 C 949.320312 346.679688 956.519531 339.480469 965.160156 338.757812 L 1025.277344 333.539062 C 1031.757812 333 1038.058594 336.058594 1041.480469 341.820312 L 1100.519531 439.917969 L 1108.980469 341.277344 C 1109.878906 332.640625 1116.898438 325.4375 1125.71875 324.71875 L 1185.660156 319.5 C 1196.457031 318.597656 1205.277344 327.417969 1204.378906 338.21875 L 1182.777344 586.4375 C 1182.058594 595.257812 1175.039062 602.457031 1166.21875 603.179688 L 1106.097656 608.398438 C 1099.617188 608.9375 1093.320312 605.878906 1089.898438 600.117188 L 1030.859375 502.378906 L 1022.398438 600.476562 C 1021.679688 609.296875 1014.480469 616.496094 1005.839844 617.21875 L 945.71875 622.4375 C 934.917969 623.339844 926.097656 614.519531 927 603.71875 L 935.097656 511.558594 C 917.28125 579.597656 857.699219 632.519531 786.058594 638.816406 C 749.519531 642.058594 712.800781 632.339844 686.160156 606.238281 C 669.960938 590.398438 659.699219 570.777344 654.839844 549.71875 C 633.058594 610.917969 576.902344 657.179688 510.121094 662.9375 C 473.582031 666.179688 436.859375 656.636719 410.222656 630.359375 C 395.460938 615.957031 385.5625 598.316406 380.339844 579.417969 C 380.160156 580.679688 380.160156 581.9375 379.980469 583.378906 C 374.941406 642.597656 322.921875 679.316406 266.941406 684.359375 C 209.160156 689.398438 155.164062 663.296875 158.582031 597.777344 C 158.941406 593.457031 160.742188 589.316406 163.800781 586.078125 C 166.863281 583.019531 170.820312 581.039062 175.320312 580.5 L 234.183594 575.457031 C 232.023438 574.917969 230.582031 574.558594 229.683594 574.199219 C 188.640625 562.136719 164.164062 538.558594 168.480469 492.660156 C 173.882812 432.898438 225.722656 399.957031 281.34375 395.097656 C 338.402344 390.058594 388.082031 415.4375 385.921875 478.980469 C 385.742188 483.480469 383.941406 487.796875 380.882812 491.039062 C 377.820312 494.277344 373.679688 496.257812 369.179688 496.617188 L 310.5 501.839844 C 314.460938 502.738281 317.703125 503.636719 319.320312 504.179688 C 345.960938 512.457031 366.300781 525.597656 375.300781 547.378906 C 375.121094 540.898438 375.300781 534.417969 375.839844 527.9375 C 382.863281 446.9375 449.101562 380.339844 530.101562 373.320312 C 566.640625 370.078125 603.179688 379.4375 629.820312 405.539062 C 646.019531 421.378906 656.101562 441 660.960938 462.058594 C 682.921875 401.039062 739.621094 354.960938 806.039062 349.199219 C 842.578125 345.960938 879.121094 355.320312 905.757812 381.417969 C 926.460938 401.757812 937.257812 428.398438 939.78125 456.480469 Z M 267.480469 487.4375 C 269.28125 489.957031 279 493.199219 289.621094 496.257812 C 286.921875 493.199219 285.480469 489.238281 285.480469 484.738281 C 285.660156 479.160156 283.140625 478.617188 277.742188 478.980469 C 271.980469 479.339844 268.023438 481.136719 267.480469 487.257812 C 267.480469 487.257812 267.480469 487.4375 267.480469 487.4375 Z M 252.902344 580.136719 C 255.960938 583.199219 257.941406 587.339844 257.941406 592.019531 C 257.941406 599.757812 259.5625 601.378906 267.300781 600.65625 C 272.882812 600.117188 280.800781 598.136719 281.523438 591.476562 C 281.523438 591.117188 281.523438 590.578125 281.523438 590.398438 C 280.082031 587.519531 266.222656 583.378906 252.902344 580.136719 Z M 472.5 524.699219 C 469.980469 553.859375 481.140625 575.277344 512.820312 572.398438 C 546.121094 569.519531 564.839844 542.699219 567.539062 511.199219 C 570.0625 482.21875 559.441406 460.617188 527.582031 463.5 C 493.5625 466.378906 475.382812 492.476562 472.5 524.699219 Z M 748.441406 500.578125 C 745.921875 529.558594 757.078125 551.160156 788.761719 548.277344 C 822.058594 545.398438 840.78125 518.578125 843.480469 487.078125 C 846 458.097656 835.378906 436.5 803.519531 439.378906 C 769.5 442.257812 751.320312 468.359375 748.441406 500.578125 Z M 748.441406 500.578125 " fill-opacity="1" fill-rule="evenodd"/><path fill="#ffffff" d="M 197.101562 275.9375 C 201.421875 224.640625 240.121094 184.320312 291.421875 179.820312 C 330.839844 176.398438 361.261719 195.660156 367.921875 233.820312 C 368.101562 234.71875 367.921875 235.621094 367.203125 236.519531 C 366.480469 237.417969 365.582031 237.78125 364.679688 237.960938 L 320.042969 241.917969 C 318.960938 241.917969 317.882812 241.378906 317.519531 240.300781 C 312.300781 227.699219 301.5 222.121094 287.101562 223.378906 C 261.183594 225.71875 246.601562 247.5 244.441406 271.800781 C 242.28125 296.277344 253.441406 315.71875 279.363281 313.558594 C 293.761719 312.300781 305.640625 304.738281 313.019531 291.058594 C 313.742188 289.800781 314.820312 289.078125 316.082031 289.078125 L 360.542969 285.121094 C 361.621094 284.9375 362.339844 285.300781 362.882812 286.199219 C 363.421875 286.917969 363.601562 287.820312 363.242188 288.71875 C 349.5625 328.679688 315.542969 353.339844 276.121094 356.757812 C 224.820312 361.257812 192.601562 327.417969 197.101562 275.9375 Z M 554.21875 244.621094 C 549.71875 295.199219 508.5 336.777344 458.28125 341.277344 C 408.242188 345.597656 373.140625 310.679688 377.460938 259.917969 C 381.960938 209.160156 423.722656 167.757812 473.761719 163.441406 C 524.160156 159.121094 558.539062 193.679688 554.21875 244.621094 Z M 665.820312 258.839844 L 718.558594 146.339844 C 719.28125 145.078125 720.359375 144.179688 721.621094 144.179688 L 769.320312 140.039062 C 770.941406 139.859375 772.199219 141.121094 772.199219 142.917969 L 757.621094 310.320312 C 757.441406 312.121094 755.820312 313.558594 754.199219 313.738281 L 713.699219 317.339844 C 712.078125 317.339844 710.640625 316.078125 710.820312 314.460938 L 718.019531 231.300781 L 679.679688 318.238281 C 679.140625 319.5 677.878906 320.398438 676.621094 320.578125 L 643.859375 323.460938 C 642.601562 323.460938 641.519531 322.738281 641.160156 321.660156 L 617.039062 239.9375 L 609.839844 323.277344 C 609.660156 324.898438 608.21875 326.519531 606.421875 326.699219 L 565.921875 330.117188 C 564.300781 330.300781 563.039062 329.039062 563.039062 327.238281 L 577.621094 159.839844 C 577.800781 158.039062 579.421875 156.601562 581.039062 156.417969 L 628.921875 152.28125 C 630.179688 152.101562 631.261719 152.820312 631.621094 153.898438 Z M 780.480469 308.339844 L 795.058594 140.761719 C 795.238281 139.140625 796.679688 137.519531 798.480469 137.339844 L 838.800781 133.917969 C 840.597656 133.738281 841.859375 135 841.679688 136.800781 L 827.097656 304.199219 C 827.097656 306 825.480469 307.4375 823.859375 307.621094 L 783.359375 311.21875 C 781.558594 311.398438 780.300781 309.960938 780.480469 308.339844 Z M 905.039062 205.199219 L 896.9375 298.078125 C 896.9375 299.878906 895.320312 301.320312 893.699219 301.5 L 853.199219 305.097656 C 851.398438 305.277344 850.140625 303.839844 850.320312 302.21875 L 864.898438 134.640625 C 865.078125 133.019531 866.519531 131.398438 868.320312 131.398438 L 908.640625 127.800781 C 909.71875 127.621094 910.621094 128.160156 911.160156 128.878906 L 964.980469 218.519531 L 973.078125 125.28125 C 973.257812 123.480469 974.699219 122.039062 976.5 121.859375 L 1017 118.261719 C 1018.617188 118.078125 1019.878906 119.519531 1019.699219 121.140625 L 1005.296875 288.71875 C 1005.117188 290.339844 1003.5 291.960938 1001.878906 292.140625 L 961.378906 295.558594 C 960.300781 295.738281 959.398438 295.199219 958.859375 294.480469 Z M 1153.4375 214.917969 L 1106.636719 218.878906 C 1104.839844 219.058594 1103.578125 217.800781 1103.757812 216.179688 L 1106.457031 186.121094 C 1106.457031 184.320312 1108.078125 182.699219 1109.699219 182.699219 L 1197.898438 174.960938 C 1199.519531 174.78125 1200.777344 176.039062 1200.777344 177.839844 L 1197.359375 215.640625 C 1197.359375 216 1197.359375 216.359375 1197.179688 216.539062 C 1182.957031 254.699219 1146.957031 280.621094 1108.976562 283.859375 C 1057.5 288.359375 1024.199219 255.058594 1028.699219 203.21875 C 1033.199219 151.378906 1072.617188 111.601562 1124.097656 107.101562 C 1162.078125 103.679688 1193.039062 119.699219 1199.519531 157.140625 C 1199.699219 158.21875 1199.519531 159.121094 1198.796875 160.019531 C 1198.078125 160.738281 1197.179688 161.28125 1196.277344 161.460938 L 1151.457031 165.238281 C 1150.378906 165.417969 1149.296875 164.878906 1148.9375 163.980469 C 1143.71875 153.179688 1132.738281 149.941406 1120.316406 151.019531 C 1094.039062 153.359375 1078.378906 173.878906 1076.21875 199.078125 C 1073.699219 227.160156 1087.199219 243.71875 1115.816406 241.378906 C 1132.917969 239.757812 1145.878906 230.578125 1153.4375 214.917969 Z M 425.160156 255.78125 C 422.820312 281.519531 435.242188 300.058594 462.0625 297.71875 C 488.699219 295.378906 504.539062 274.140625 506.699219 248.757812 C 509.039062 223.019531 496.800781 204.300781 469.980469 206.640625 C 442.980469 209.160156 427.320312 229.859375 425.160156 255.78125 Z M 425.160156 255.78125 " fill-opacity="1" fill-rule="evenodd"/><path fill="#ffffff" d="M 365.222656 582.117188 C 360.722656 634.496094 313.921875 665.277344 265.683594 669.597656 C 215.640625 673.917969 170.460938 653.757812 173.34375 598.679688 C 173.523438 597.777344 173.882812 597.058594 174.421875 596.339844 C 174.960938 595.796875 175.683594 595.4375 176.582031 595.257812 L 240.480469 589.679688 C 241.921875 589.679688 243.183594 590.578125 243.183594 592.199219 C 243.183594 608.578125 252.183594 616.859375 268.5625 615.417969 C 281.703125 614.15625 295.023438 607.496094 296.28125 592.738281 C 299.882812 550.4375 174.960938 583.917969 183.242188 494.097656 C 188.101562 441 235.082031 414 282.601562 409.859375 C 331.742188 405.539062 372.960938 425.160156 371.160156 478.617188 C 370.980469 479.339844 370.800781 480.058594 370.082031 480.777344 C 369.542969 481.5 368.820312 481.859375 367.921875 481.859375 L 302.941406 487.617188 C 301.5 487.617188 300.242188 486.539062 300.421875 485.097656 C 300.601562 470.339844 290.882812 463.320312 276.660156 464.21875 C 263.882812 465.117188 253.980469 472.136719 252.722656 485.820312 C 249.300781 525.238281 372.601562 497.160156 365.222656 582.117188 Z M 649.082031 506.699219 C 642.601562 580.859375 582.480469 641.878906 508.859375 648.179688 C 435.421875 654.65625 384.121094 603.539062 390.601562 529.378906 C 397.082031 455.039062 458.101562 394.558594 531.539062 388.078125 C 605.160156 381.597656 655.558594 432.359375 649.082031 506.699219 Z M 925.019531 482.578125 C 918.539062 556.738281 858.417969 617.578125 784.800781 624.058594 C 711.359375 630.539062 660.058594 579.417969 666.539062 505.078125 C 673.019531 430.738281 734.039062 370.257812 807.480469 363.957031 C 881.097656 357.480469 931.5 408.058594 925.019531 482.578125 Z M 1020.058594 455.757812 L 1007.640625 599.21875 C 1007.457031 600.839844 1006.019531 602.277344 1004.398438 602.457031 L 944.460938 607.679688 C 942.839844 607.859375 941.578125 606.597656 941.757812 604.976562 L 963.359375 356.757812 C 963.539062 355.140625 964.980469 353.699219 966.417969 353.519531 L 1026.539062 348.300781 C 1027.617188 348.117188 1028.339844 348.480469 1028.878906 349.378906 L 1111.320312 486.71875 L 1123.738281 342.71875 C 1123.917969 341.097656 1125.359375 339.660156 1126.976562 339.480469 L 1186.917969 334.257812 C 1188.539062 334.078125 1189.796875 335.339844 1189.617188 336.960938 L 1168.019531 585.179688 C 1167.839844 586.796875 1166.578125 588.238281 1164.957031 588.417969 L 1104.839844 593.636719 C 1103.9375 593.636719 1103.039062 593.277344 1102.5 592.558594 Z M 457.742188 523.4375 C 454.320312 562.679688 473.402344 590.757812 514.261719 587.15625 C 554.582031 583.738281 578.878906 551.339844 582.300781 512.457031 C 585.71875 473.398438 567 445.140625 526.140625 448.738281 C 485.101562 452.339844 461.160156 483.839844 457.742188 523.4375 Z M 733.679688 499.320312 C 730.261719 538.558594 749.339844 566.636719 790.199219 563.039062 C 830.519531 559.617188 854.820312 527.21875 858.238281 488.339844 C 861.660156 449.277344 842.941406 421.019531 802.078125 424.617188 C 761.039062 428.21875 737.101562 459.71875 733.679688 499.320312 Z M 733.679688 499.320312 " fill-opacity="1" fill-rule="evenodd"/><path fill="#58d999" d="M 36.722656 423.179688 L 127.261719 396.898438 L 22.324219 389.699219 Z M 36.722656 423.179688 " fill-opacity="1" fill-rule="evenodd"/><path fill="#58d999" d="M 146.882812 368.457031 L 0.902344 320.398438 L 10.984375 274.859375 Z M 146.882812 368.457031 " fill-opacity="1" fill-rule="evenodd"/><path fill="#58d999" d="M 154.261719 335.699219 L 90.542969 276.839844 L 108.003906 256.140625 Z M 154.261719 335.699219 " fill-opacity="1" fill-rule="evenodd"/><path fill="#58d999" d="M 1299.238281 194.039062 L 1276.917969 284.398438 L 1334.878906 198.359375 Z M 1299.238281 194.039062 " fill-opacity="1" fill-rule="evenodd"/><path fill="#58d999" d="M 1291.675781 315.179688 L 1404.539062 214.199219 L 1438.378906 245.339844 Z M 1291.675781 315.179688 " fill-opacity="1" fill-rule="evenodd"/><path fill="#58d999" d="M 1315.976562 337.679688 L 1397.515625 312.121094 L 1406.515625 337.320312 Z M 1315.976562 337.679688 " fill-opacity="1" fill-rule="evenodd"/></svg>