<svg xmlns="http://www.w3.org/2000/svg" xmlns:xlink="http://www.w3.org/1999/xlink" width="500" zoomAndPan="magnify" viewBox="0 0 375 374.999991" height="500" preserveAspectRatio="xMidYMid meet" version="1.0"><defs><clipPath id="185811ae0c"><path d="M 37.539062 47 L 218 47 L 218 286 L 37.539062 286 Z M 37.539062 47 " clip-rule="nonzero"/></clipPath><clipPath id="c0f45b5f76"><path d="M 39 17.101562 L 328.21875 17.101562 L 328.21875 357.855469 L 39 357.855469 Z M 39 17.101562 " clip-rule="nonzero"/></clipPath><clipPath id="4a9153d886"><path d="M 183.152344 205.511719 L 337.039062 205.511719 L 337.039062 358 L 183.152344 358 Z M 183.152344 205.511719 " clip-rule="nonzero"/></clipPath></defs><g clip-path="url(#185811ae0c)"><path fill="#58d99a" d="M 126.570312 285.4375 L 37.847656 196.714844 L 187.097656 47.464844 L 217.164062 77.527344 L 97.976562 196.714844 L 156.632812 255.371094 Z M 126.570312 285.4375 " fill-opacity="1" fill-rule="nonzero"/></g><g clip-path="url(#c0f45b5f76)"><path fill="#ffffff" d="M 81.800781 116.679688 L 39.289062 159.195312 L 39.289062 17.101562 L 156.746094 17.101562 L 169.070312 29.425781 L 138.867188 59.617188 L 81.800781 59.617188 Z M 235.242188 95.605469 L 205.175781 125.667969 L 268.28125 188.773438 L 141.679688 315.382812 L 81.800781 315.382812 L 81.800781 276.738281 L 39.289062 234.226562 L 39.289062 357.894531 L 159.292969 357.894531 L 328.414062 188.773438 Z M 235.242188 95.605469 " fill-opacity="1" fill-rule="nonzero"/></g><g clip-path="url(#4a9153d886)"><path fill="#58d99a" d="M 183.152344 357.742188 L 337.476562 205.6875 L 337.476562 357.742188 Z M 183.152344 357.742188 " fill-opacity="1" fill-rule="nonzero"/></g></svg>