<svg xmlns="http://www.w3.org/2000/svg" xmlns:xlink="http://www.w3.org/1999/xlink" width="947" zoomAndPan="magnify" viewBox="0 0 710.25 239.249991" height="319" preserveAspectRatio="xMidYMid meet" version="1.0"><defs><g/><clipPath id="4299c0fc34"><path d="M 506.007812 16.121094 L 693.296875 16.121094 L 693.296875 109.765625 L 506.007812 109.765625 Z M 506.007812 16.121094 " clip-rule="nonzero"/></clipPath><clipPath id="d7dcde8c29"><path d="M 646.472656 16.121094 C 672.332031 16.121094 693.296875 37.082031 693.296875 62.941406 C 693.296875 88.800781 672.332031 109.765625 646.472656 109.765625 L 552.832031 109.765625 C 526.972656 109.765625 506.007812 88.800781 506.007812 62.941406 C 506.007812 37.082031 526.972656 16.121094 552.832031 16.121094 Z M 646.472656 16.121094 " clip-rule="nonzero"/></clipPath><clipPath id="cbc8e77981"><path d="M 610.390625 28.738281 L 678.796875 28.738281 L 678.796875 97.148438 L 610.390625 97.148438 Z M 610.390625 28.738281 " clip-rule="nonzero"/></clipPath><clipPath id="e2c4059e8c"><path d="M 644.59375 28.738281 C 625.703125 28.738281 610.390625 44.050781 610.390625 62.941406 C 610.390625 81.832031 625.703125 97.148438 644.59375 97.148438 C 663.484375 97.148438 678.796875 81.832031 678.796875 62.941406 C 678.796875 44.050781 663.484375 28.738281 644.59375 28.738281 Z M 644.59375 28.738281 " clip-rule="nonzero"/></clipPath></defs><g fill="#ffffff" fill-opacity="1"><g transform="translate(0.749645, 105.817051)"><g><path d="M 34.015625 1.109375 C 28.691406 1.109375 23.957031 0.453125 19.8125 -0.859375 C 15.664062 -2.171875 12.207031 -3.894531 9.4375 -6.03125 C 6.675781 -8.164062 4.5625 -10.507812 3.09375 -13.0625 L 11.4375 -23.25 L 12.75 -23.25 C 15.0625 -19.820312 17.992188 -17.09375 21.546875 -15.0625 C 25.097656 -13.03125 29.253906 -12.015625 34.015625 -12.015625 C 38.078125 -12.015625 41.140625 -12.875 43.203125 -14.59375 C 45.265625 -16.3125 46.296875 -18.671875 46.296875 -21.671875 C 46.296875 -23.492188 45.960938 -25.015625 45.296875 -26.234375 C 44.628906 -27.460938 43.523438 -28.515625 41.984375 -29.390625 C 40.453125 -30.265625 38.375 -31.019531 35.75 -31.65625 L 25.875 -33.90625 C 18.976562 -35.476562 13.84375 -38.09375 10.46875 -41.75 C 7.09375 -45.40625 5.40625 -50.15625 5.40625 -56 C 5.40625 -60.34375 6.488281 -64.160156 8.65625 -67.453125 C 10.832031 -70.742188 13.992188 -73.296875 18.140625 -75.109375 C 22.285156 -76.929688 27.242188 -77.84375 33.015625 -77.84375 C 38.929688 -77.84375 43.992188 -77.0625 48.203125 -75.5 C 52.421875 -73.945312 55.984375 -71.5625 58.890625 -68.34375 L 51.390625 -58.046875 L 50.078125 -58.046875 C 47.910156 -60.328125 45.425781 -62.035156 42.625 -63.171875 C 39.820312 -64.304688 36.617188 -64.875 33.015625 -64.875 C 28.847656 -64.875 25.679688 -64.140625 23.515625 -62.671875 C 21.347656 -61.203125 20.265625 -59.171875 20.265625 -56.578125 C 20.265625 -54.171875 21.023438 -52.25 22.546875 -50.8125 C 24.066406 -49.375 26.695312 -48.253906 30.4375 -47.453125 L 40.515625 -45.359375 C 47.972656 -43.773438 53.378906 -41.101562 56.734375 -37.34375 C 60.097656 -33.582031 61.78125 -28.675781 61.78125 -22.625 C 61.78125 -17.832031 60.75 -13.660156 58.6875 -10.109375 C 56.625 -6.554688 53.507812 -3.796875 49.34375 -1.828125 C 45.175781 0.128906 40.066406 1.109375 34.015625 1.109375 Z M 34.015625 1.109375 "/></g></g></g><g fill="#ffffff" fill-opacity="1"><g transform="translate(66.678867, 105.817051)"><g><path d="M 59.53125 -47.875 L 59.53125 -76.734375 L 74.640625 -76.734375 L 74.640625 0 L 59.53125 0 L 59.53125 -34.953125 L 25.140625 -34.953125 L 25.140625 0 L 9.96875 0 L 9.96875 -76.734375 L 25.140625 -76.734375 L 25.140625 -47.875 Z M 59.53125 -47.875 "/></g></g></g><g fill="#ffffff" fill-opacity="1"><g transform="translate(151.347526, 105.817051)"><g><path d="M 73.640625 0 L 57.6875 0 L 51.90625 -17.6875 L 22.515625 -17.6875 L 16.75 0 L 1.15625 0 L 27.65625 -76.734375 L 47.140625 -76.734375 Z M 36.484375 -60.734375 L 26.609375 -30.4375 L 47.71875 -30.4375 L 37.796875 -60.734375 Z M 36.484375 -60.734375 "/></g></g></g><g fill="#ffffff" fill-opacity="1"><g transform="translate(226.147799, 105.817051)"><g><path d="M 9.96875 0 L 9.96875 -76.734375 L 40.78125 -76.734375 C 48.726562 -76.734375 54.722656 -74.90625 58.765625 -71.25 C 62.804688 -67.59375 64.828125 -62.546875 64.828125 -56.109375 C 64.828125 -51.453125 63.644531 -47.632812 61.28125 -44.65625 C 58.914062 -41.6875 55.390625 -39.414062 50.703125 -37.84375 L 50.703125 -36.75 C 53.117188 -35.695312 55.070312 -34.132812 56.5625 -32.0625 C 58.050781 -30 59.457031 -26.941406 60.78125 -22.890625 L 68.453125 0 L 52.859375 0 L 45.359375 -22.9375 C 44.585938 -25.25 43.71875 -27.039062 42.75 -28.3125 C 41.789062 -29.59375 40.566406 -30.519531 39.078125 -31.09375 C 37.585938 -31.675781 35.65625 -31.96875 33.28125 -31.96875 L 25.140625 -31.96875 L 25.140625 0 Z M 38.953125 -43.984375 C 46.296875 -43.984375 49.96875 -47.414062 49.96875 -54.28125 C 49.96875 -61.238281 46.296875 -64.71875 38.953125 -64.71875 L 25.140625 -64.71875 L 25.140625 -43.984375 Z M 38.953125 -43.984375 "/></g></g></g><g fill="#ffffff" fill-opacity="1"><g transform="translate(297.903555, 105.817051)"><g><path d="M 25.140625 0 L 9.96875 0 L 9.96875 -76.734375 L 25.140625 -76.734375 Z M 25.140625 0 "/></g></g></g><g fill="#ffffff" fill-opacity="1"><g transform="translate(333.072806, 105.817051)"><g><path d="M 24.671875 0 L 9.96875 0 L 9.96875 -76.734375 L 27.34375 -76.734375 L 58.15625 -27.296875 L 59.53125 -27.5 L 59.53125 -76.734375 L 74.109375 -76.734375 L 74.109375 0 L 58.578125 0 L 25.984375 -52.8125 L 24.671875 -52.59375 Z M 24.671875 0 "/></g></g></g><g fill="#ffffff" fill-opacity="1"><g transform="translate(417.216537, 105.817051)"><g><path d="M 37.265625 1.109375 C 30.859375 1.109375 25.316406 -0.347656 20.640625 -3.265625 C 15.972656 -6.191406 12.367188 -10.601562 9.828125 -16.5 C 7.296875 -22.40625 6.03125 -29.695312 6.03125 -38.375 C 6.03125 -47.125 7.550781 -54.445312 10.59375 -60.34375 C 13.644531 -66.238281 17.875 -70.628906 23.28125 -73.515625 C 28.6875 -76.398438 34.957031 -77.84375 42.09375 -77.84375 C 49.445312 -77.84375 55.710938 -76.476562 60.890625 -73.75 C 66.066406 -71.019531 69.707031 -66.960938 71.8125 -61.578125 L 60.734375 -54.859375 L 59.421875 -54.90625 C 57.847656 -58.332031 55.632812 -60.832031 52.78125 -62.40625 C 49.925781 -63.976562 46.363281 -64.765625 42.09375 -64.765625 C 35.476562 -64.765625 30.421875 -62.675781 26.921875 -58.5 C 23.421875 -54.320312 21.671875 -47.613281 21.671875 -38.375 C 21.671875 -29.09375 23.304688 -22.351562 26.578125 -18.15625 C 29.859375 -13.957031 34.695312 -11.859375 41.09375 -11.859375 C 46.625 -11.859375 50.703125 -13.097656 53.328125 -15.578125 C 55.953125 -18.066406 57.265625 -21.78125 57.265625 -26.71875 L 57.265625 -30.03125 L 39.109375 -30.03125 L 39.109375 -42.359375 L 72.328125 -42.359375 L 72.328125 0 L 57.84375 0 L 57.84375 -10.28125 L 56.734375 -10.453125 C 55.160156 -6.773438 52.773438 -3.925781 49.578125 -1.90625 C 46.378906 0.101562 42.273438 1.109375 37.265625 1.109375 Z M 37.265625 1.109375 "/></g></g></g><g fill="#ffffff" fill-opacity="1"><g transform="translate(0.763339, 215.581879)"><g><path d="M 42.046875 0 L 26.875 0 L 26.875 -30.125 L 0.375 -76.734375 L 16.640625 -76.734375 L 34.171875 -46.5625 L 35.484375 -46.5625 L 52.640625 -76.734375 L 68.546875 -76.734375 L 42.046875 -30.125 Z M 42.046875 0 "/></g></g></g><g fill="#ffffff" fill-opacity="1"><g transform="translate(69.684573, 215.581879)"><g><path d="M 41.828125 1.109375 C 34.796875 1.109375 28.59375 -0.320312 23.21875 -3.1875 C 17.851562 -6.0625 13.644531 -10.445312 10.59375 -16.34375 C 7.550781 -22.25 6.03125 -29.59375 6.03125 -38.375 C 6.03125 -47.15625 7.550781 -54.492188 10.59375 -60.390625 C 13.644531 -66.285156 17.851562 -70.664062 23.21875 -73.53125 C 28.59375 -76.40625 34.796875 -77.84375 41.828125 -77.84375 C 48.867188 -77.84375 55.066406 -76.414062 60.421875 -73.5625 C 65.773438 -70.707031 69.960938 -66.320312 72.984375 -60.40625 C 76.015625 -54.5 77.53125 -47.15625 77.53125 -38.375 C 77.53125 -29.59375 76.015625 -22.242188 72.984375 -16.328125 C 69.960938 -10.410156 65.773438 -6.023438 60.421875 -3.171875 C 55.066406 -0.316406 48.867188 1.109375 41.828125 1.109375 Z M 41.828125 -12.078125 C 48.335938 -12.078125 53.304688 -14.164062 56.734375 -18.34375 C 60.171875 -22.53125 61.890625 -29.207031 61.890625 -38.375 C 61.890625 -47.539062 60.171875 -54.222656 56.734375 -58.421875 C 53.304688 -62.617188 48.335938 -64.71875 41.828125 -64.71875 C 35.285156 -64.71875 30.289062 -62.617188 26.84375 -58.421875 C 23.394531 -54.222656 21.671875 -47.539062 21.671875 -38.375 C 21.671875 -29.207031 23.394531 -22.53125 26.84375 -18.34375 C 30.289062 -14.164062 35.285156 -12.078125 41.828125 -12.078125 Z M 41.828125 -12.078125 "/></g></g></g><g fill="#ffffff" fill-opacity="1"><g transform="translate(153.303403, 215.581879)"><g><path d="M 40.6875 1.109375 C 30.113281 1.109375 22.269531 -1.398438 17.15625 -6.421875 C 12.050781 -11.453125 9.5 -18.898438 9.5 -28.765625 L 9.5 -76.734375 L 24.359375 -76.734375 L 24.359375 -28.875 C 24.359375 -23.269531 25.703125 -19.066406 28.390625 -16.265625 C 31.085938 -13.472656 35.1875 -12.078125 40.6875 -12.078125 C 51.5625 -12.078125 57 -17.675781 57 -28.875 L 57 -76.734375 L 71.859375 -76.734375 L 71.859375 -28.765625 C 71.859375 -18.898438 69.300781 -11.453125 64.1875 -6.421875 C 59.082031 -1.398438 51.25 1.109375 40.6875 1.109375 Z M 40.6875 1.109375 "/></g></g></g><g fill="#ffffff" fill-opacity="1"><g transform="translate(234.665103, 215.581879)"><g><path d="M 9.96875 0 L 9.96875 -76.734375 L 40.78125 -76.734375 C 48.726562 -76.734375 54.722656 -74.90625 58.765625 -71.25 C 62.804688 -67.59375 64.828125 -62.546875 64.828125 -56.109375 C 64.828125 -51.453125 63.644531 -47.632812 61.28125 -44.65625 C 58.914062 -41.6875 55.390625 -39.414062 50.703125 -37.84375 L 50.703125 -36.75 C 53.117188 -35.695312 55.070312 -34.132812 56.5625 -32.0625 C 58.050781 -30 59.457031 -26.941406 60.78125 -22.890625 L 68.453125 0 L 52.859375 0 L 45.359375 -22.9375 C 44.585938 -25.25 43.71875 -27.039062 42.75 -28.3125 C 41.789062 -29.59375 40.566406 -30.519531 39.078125 -31.09375 C 37.585938 -31.675781 35.65625 -31.96875 33.28125 -31.96875 L 25.140625 -31.96875 L 25.140625 0 Z M 38.953125 -43.984375 C 46.296875 -43.984375 49.96875 -47.414062 49.96875 -54.28125 C 49.96875 -61.238281 46.296875 -64.71875 38.953125 -64.71875 L 25.140625 -64.71875 L 25.140625 -43.984375 Z M 38.953125 -43.984375 "/></g></g></g><g fill="#ffffff" fill-opacity="1"><g transform="translate(306.420887, 215.581879)"><g/></g></g><g fill="#ffffff" fill-opacity="1"><g transform="translate(331.774255, 215.581879)"><g><path d="M 45.609375 0 L 27.296875 0 L 1.359375 -76.734375 L 17.484375 -76.734375 L 36.109375 -19.53125 L 37.421875 -19.53125 L 55.796875 -76.734375 L 71.484375 -76.734375 Z M 45.609375 0 "/></g></g></g><g fill="#ffffff" fill-opacity="1"><g transform="translate(404.632345, 215.581879)"><g><path d="M 25.140625 0 L 9.96875 0 L 9.96875 -76.734375 L 25.140625 -76.734375 Z M 25.140625 0 "/></g></g></g><g fill="#ffffff" fill-opacity="1"><g transform="translate(439.801596, 215.581879)"><g><path d="M 34.015625 1.109375 C 28.691406 1.109375 23.957031 0.453125 19.8125 -0.859375 C 15.664062 -2.171875 12.207031 -3.894531 9.4375 -6.03125 C 6.675781 -8.164062 4.5625 -10.507812 3.09375 -13.0625 L 11.4375 -23.25 L 12.75 -23.25 C 15.0625 -19.820312 17.992188 -17.09375 21.546875 -15.0625 C 25.097656 -13.03125 29.253906 -12.015625 34.015625 -12.015625 C 38.078125 -12.015625 41.140625 -12.875 43.203125 -14.59375 C 45.265625 -16.3125 46.296875 -18.671875 46.296875 -21.671875 C 46.296875 -23.492188 45.960938 -25.015625 45.296875 -26.234375 C 44.628906 -27.460938 43.523438 -28.515625 41.984375 -29.390625 C 40.453125 -30.265625 38.375 -31.019531 35.75 -31.65625 L 25.875 -33.90625 C 18.976562 -35.476562 13.84375 -38.09375 10.46875 -41.75 C 7.09375 -45.40625 5.40625 -50.15625 5.40625 -56 C 5.40625 -60.34375 6.488281 -64.160156 8.65625 -67.453125 C 10.832031 -70.742188 13.992188 -73.296875 18.140625 -75.109375 C 22.285156 -76.929688 27.242188 -77.84375 33.015625 -77.84375 C 38.929688 -77.84375 43.992188 -77.0625 48.203125 -75.5 C 52.421875 -73.945312 55.984375 -71.5625 58.890625 -68.34375 L 51.390625 -58.046875 L 50.078125 -58.046875 C 47.910156 -60.328125 45.425781 -62.035156 42.625 -63.171875 C 39.820312 -64.304688 36.617188 -64.875 33.015625 -64.875 C 28.847656 -64.875 25.679688 -64.140625 23.515625 -62.671875 C 21.347656 -61.203125 20.265625 -59.171875 20.265625 -56.578125 C 20.265625 -54.171875 21.023438 -52.25 22.546875 -50.8125 C 24.066406 -49.375 26.695312 -48.253906 30.4375 -47.453125 L 40.515625 -45.359375 C 47.972656 -43.773438 53.378906 -41.101562 56.734375 -37.34375 C 60.097656 -33.582031 61.78125 -28.675781 61.78125 -22.625 C 61.78125 -17.832031 60.75 -13.660156 58.6875 -10.109375 C 56.625 -6.554688 53.507812 -3.796875 49.34375 -1.828125 C 45.175781 0.128906 40.066406 1.109375 34.015625 1.109375 Z M 34.015625 1.109375 "/></g></g></g><g fill="#ffffff" fill-opacity="1"><g transform="translate(505.730846, 215.581879)"><g><path d="M 25.140625 0 L 9.96875 0 L 9.96875 -76.734375 L 25.140625 -76.734375 Z M 25.140625 0 "/></g></g></g><g fill="#ffffff" fill-opacity="1"><g transform="translate(540.900123, 215.581879)"><g><path d="M 41.828125 1.109375 C 34.796875 1.109375 28.59375 -0.320312 23.21875 -3.1875 C 17.851562 -6.0625 13.644531 -10.445312 10.59375 -16.34375 C 7.550781 -22.25 6.03125 -29.59375 6.03125 -38.375 C 6.03125 -47.15625 7.550781 -54.492188 10.59375 -60.390625 C 13.644531 -66.285156 17.851562 -70.664062 23.21875 -73.53125 C 28.59375 -76.40625 34.796875 -77.84375 41.828125 -77.84375 C 48.867188 -77.84375 55.066406 -76.414062 60.421875 -73.5625 C 65.773438 -70.707031 69.960938 -66.320312 72.984375 -60.40625 C 76.015625 -54.5 77.53125 -47.15625 77.53125 -38.375 C 77.53125 -29.59375 76.015625 -22.242188 72.984375 -16.328125 C 69.960938 -10.410156 65.773438 -6.023438 60.421875 -3.171875 C 55.066406 -0.316406 48.867188 1.109375 41.828125 1.109375 Z M 41.828125 -12.078125 C 48.335938 -12.078125 53.304688 -14.164062 56.734375 -18.34375 C 60.171875 -22.53125 61.890625 -29.207031 61.890625 -38.375 C 61.890625 -47.539062 60.171875 -54.222656 56.734375 -58.421875 C 53.304688 -62.617188 48.335938 -64.71875 41.828125 -64.71875 C 35.285156 -64.71875 30.289062 -62.617188 26.84375 -58.421875 C 23.394531 -54.222656 21.671875 -47.539062 21.671875 -38.375 C 21.671875 -29.207031 23.394531 -22.53125 26.84375 -18.34375 C 30.289062 -14.164062 35.285156 -12.078125 41.828125 -12.078125 Z M 41.828125 -12.078125 "/></g></g></g><g fill="#ffffff" fill-opacity="1"><g transform="translate(624.518941, 215.581879)"><g><path d="M 24.671875 0 L 9.96875 0 L 9.96875 -76.734375 L 27.34375 -76.734375 L 58.15625 -27.296875 L 59.53125 -27.5 L 59.53125 -76.734375 L 74.109375 -76.734375 L 74.109375 0 L 58.578125 0 L 25.984375 -52.8125 L 24.671875 -52.59375 Z M 24.671875 0 "/></g></g></g><g clip-path="url(#4299c0fc34)"><g clip-path="url(#d7dcde8c29)"><path fill="#58d999" d="M 506.007812 16.121094 L 693.296875 16.121094 L 693.296875 109.765625 L 506.007812 109.765625 Z M 506.007812 16.121094 " fill-opacity="1" fill-rule="nonzero"/></g></g><g clip-path="url(#cbc8e77981)"><g clip-path="url(#e2c4059e8c)"><path fill="#ffffff" d="M 610.390625 28.738281 L 678.796875 28.738281 L 678.796875 97.148438 L 610.390625 97.148438 Z M 610.390625 28.738281 " fill-opacity="1" fill-rule="nonzero"/></g></g></svg>