<svg xmlns="http://www.w3.org/2000/svg" xmlns:xlink="http://www.w3.org/1999/xlink" width="500" zoomAndPan="magnify" viewBox="0 0 375 374.999991" height="500" preserveAspectRatio="xMidYMid meet" version="1.0"><defs><clipPath id="979372aa81"><path d="M 11 5.511719 L 365 5.511719 L 365 375 L 11 375 Z M 11 5.511719 " clip-rule="nonzero"/></clipPath></defs><g clip-path="url(#979372aa81)"><path fill="#ffffff" d="M 114.15625 133.929688 C 134.21875 133.929688 152.488281 142.09375 165.632812 155.238281 C 178.917969 168.386719 187.082031 186.652344 187.082031 206.855469 C 187.082031 226.921875 178.917969 245.1875 165.632812 258.335938 C 161.066406 262.902344 155.945312 266.777344 150.410156 270.097656 C 164.109375 275.078125 176.425781 282.964844 186.527344 292.929688 C 205.210938 311.195312 216.835938 336.382812 216.835938 364.195312 C 216.835938 370.007812 212.128906 374.574219 206.316406 374.574219 L 21.855469 374.574219 C 16.179688 374.574219 11.476562 370.007812 11.476562 364.195312 C 11.476562 333.476562 22.824219 309.535156 39.980469 292.652344 C 50.636719 282.273438 63.507812 274.664062 77.34375 269.820312 C 71.949219 266.636719 66.964844 262.761719 62.539062 258.335938 C 49.390625 245.1875 41.226562 226.921875 41.226562 206.855469 C 41.226562 186.652344 49.390625 168.386719 62.539062 155.238281 C 75.824219 142.09375 93.949219 133.929688 114.15625 133.929688 Z M 312.871094 79.269531 C 315.917969 79.269531 318.683594 80.511719 320.621094 82.449219 C 322.695312 84.386719 323.941406 87.15625 323.941406 90.199219 C 323.941406 93.246094 322.695312 95.875 320.621094 97.8125 C 318.683594 99.886719 315.917969 100.992188 312.871094 100.992188 C 309.828125 100.992188 307.058594 99.886719 305.121094 97.8125 C 303.046875 95.875 301.800781 93.246094 301.800781 90.199219 C 301.800781 87.15625 303.046875 84.386719 305.121094 82.449219 C 307.058594 80.511719 309.828125 79.269531 312.871094 79.269531 Z M 315.777344 87.570312 C 315.085938 86.878906 313.980469 86.464844 312.871094 86.464844 C 311.765625 86.464844 310.796875 86.878906 310.105469 87.570312 C 309.414062 88.261719 308.996094 89.09375 308.996094 90.199219 C 308.996094 91.167969 309.414062 92.136719 310.105469 92.828125 C 310.796875 93.519531 311.765625 93.9375 312.871094 93.9375 C 313.980469 93.9375 315.085938 93.519531 315.777344 92.828125 C 316.46875 92.136719 316.882812 91.167969 316.882812 90.199219 C 316.882812 89.09375 316.46875 88.261719 315.777344 87.570312 Z M 281.042969 79.269531 C 284.089844 79.269531 286.855469 80.511719 288.792969 82.449219 C 290.867188 84.386719 292.113281 87.15625 292.113281 90.199219 C 292.113281 93.246094 290.867188 95.875 288.792969 97.8125 C 286.855469 99.886719 284.089844 100.992188 281.042969 100.992188 C 278 100.992188 275.230469 99.886719 273.292969 97.8125 C 271.21875 95.875 269.972656 93.246094 269.972656 90.199219 C 269.972656 87.15625 271.21875 84.386719 273.292969 82.449219 C 275.230469 80.511719 278 79.269531 281.042969 79.269531 Z M 283.8125 87.570312 C 283.121094 86.878906 282.152344 86.464844 281.042969 86.464844 C 279.9375 86.464844 278.828125 86.878906 278.136719 87.570312 C 277.445312 88.261719 277.03125 89.09375 277.03125 90.199219 C 277.03125 91.167969 277.445312 92.136719 278.136719 92.828125 C 278.828125 93.519531 279.9375 93.9375 281.042969 93.9375 C 282.152344 93.9375 283.121094 93.519531 283.8125 92.828125 C 284.503906 92.136719 284.917969 91.167969 284.917969 90.199219 C 284.917969 89.09375 284.503906 88.261719 283.8125 87.570312 Z M 249.214844 79.269531 C 252.121094 79.269531 254.890625 80.511719 256.964844 82.449219 C 258.902344 84.386719 260.285156 87.15625 260.285156 90.199219 C 260.285156 93.246094 258.902344 95.875 256.964844 97.8125 C 254.890625 99.886719 252.121094 100.992188 249.214844 100.992188 C 246.171875 100.992188 243.402344 99.886719 241.328125 97.8125 C 239.390625 95.875 238.144531 93.246094 238.144531 90.199219 C 238.144531 87.15625 239.390625 84.386719 241.328125 82.449219 C 243.402344 80.511719 246.171875 79.269531 249.214844 79.269531 Z M 251.984375 87.570312 C 251.292969 86.878906 250.324219 86.464844 249.214844 86.464844 C 247.96875 86.464844 247 86.878906 246.308594 87.570312 C 245.617188 88.261719 245.203125 89.09375 245.203125 90.199219 C 245.203125 91.167969 245.617188 92.136719 246.308594 92.828125 C 247 93.519531 247.96875 93.9375 249.214844 93.9375 C 250.324219 93.9375 251.292969 93.519531 251.984375 92.828125 C 252.675781 92.136719 253.089844 91.167969 253.089844 90.199219 C 253.089844 89.09375 252.675781 88.261719 251.984375 87.570312 Z M 254.75 151.503906 C 258.902344 153.300781 263.191406 154.6875 267.621094 155.65625 C 271.910156 156.625 276.476562 157.039062 281.042969 157.039062 C 299.035156 157.039062 315.363281 149.703125 327.125 137.527344 C 339.027344 125.488281 346.359375 108.605469 346.359375 90.0625 C 346.359375 71.519531 339.027344 54.773438 327.125 42.597656 C 315.363281 30.558594 299.035156 23.085938 281.042969 23.085938 C 263.054688 23.085938 246.863281 30.558594 234.960938 42.597656 C 223.199219 54.773438 215.867188 71.519531 215.867188 90.0625 C 215.867188 95.042969 216.417969 99.886719 217.25 104.316406 C 218.355469 109.160156 219.742188 113.585938 221.679688 117.875 L 223.199219 121.335938 L 221.816406 124.65625 C 219.601562 130.46875 217.804688 135.035156 216.140625 139.050781 C 210.746094 152.332031 206.59375 157.867188 207.285156 158.5625 C 207.703125 158.976562 218.078125 156.898438 239.667969 152.75 L 249.492188 150.8125 Z M 263.882812 173.089844 C 259.179688 171.984375 254.472656 170.601562 250.046875 168.800781 L 242.988281 170.183594 C 215.175781 175.582031 201.75 178.210938 194.691406 171.015625 C 187.082031 163.265625 191.371094 152.75 199.675781 132.40625 C 201.058594 128.945312 202.582031 125.210938 203.964844 121.472656 C 202.304688 117.183594 200.921875 112.617188 199.953125 107.914062 C 198.707031 102.101562 198.015625 96.152344 198.015625 90.0625 C 198.015625 66.8125 207.285156 45.640625 222.371094 30.28125 C 237.316406 14.921875 258.210938 5.371094 281.042969 5.371094 C 304.015625 5.371094 324.773438 14.921875 339.855469 30.28125 C 354.800781 45.640625 364.074219 66.8125 364.074219 90.0625 C 364.074219 113.449219 354.800781 134.621094 339.855469 149.980469 C 324.773438 165.339844 304.015625 174.890625 281.042969 174.890625 C 275.230469 174.890625 269.417969 174.199219 263.882812 173.089844 Z M 32.785156 353.816406 L 195.246094 353.816406 C 192.894531 335.964844 184.453125 319.914062 172.136719 307.875 C 157.332031 293.34375 136.847656 284.351562 114.15625 284.351562 C 92.289062 284.351562 70.289062 292.238281 54.511719 307.597656 C 43.027344 318.808594 35 334.167969 32.785156 353.816406 Z M 150.964844 169.90625 C 141.554688 160.5 128.546875 154.6875 114.15625 154.6875 C 99.761719 154.6875 86.753906 160.5 77.34375 169.90625 C 67.933594 179.457031 61.984375 192.464844 61.984375 206.855469 C 61.984375 221.109375 67.933594 234.257812 77.34375 243.664062 C 86.753906 253.074219 99.761719 258.886719 114.15625 258.886719 C 128.546875 258.886719 141.554688 253.074219 150.964844 243.664062 C 160.375 234.257812 166.1875 221.109375 166.1875 206.855469 C 166.1875 192.464844 160.375 179.457031 150.964844 169.90625 Z M 150.964844 169.90625 " fill-opacity="1" fill-rule="nonzero"/></g></svg>