<svg xmlns="http://www.w3.org/2000/svg" xmlns:xlink="http://www.w3.org/1999/xlink" width="418" zoomAndPan="magnify" viewBox="0 0 313.5 113.249998" height="151" preserveAspectRatio="xMidYMid meet" version="1.0"><defs><g/><clipPath id="b053a1e701"><path d="M 0.78125 9 L 58 9 L 58 86 L 0.78125 86 Z M 0.78125 9 " clip-rule="nonzero"/></clipPath><clipPath id="04b193a34e"><path d="M 1 0 L 93.171875 0 L 93.171875 108.035156 L 1 108.035156 Z M 1 0 " clip-rule="nonzero"/></clipPath><clipPath id="0a8fe6e255"><path d="M 47.074219 59.898438 L 96.25 59.898438 L 96.25 108.328125 L 47.074219 108.328125 Z M 47.074219 59.898438 " clip-rule="nonzero"/></clipPath></defs><g clip-path="url(#b053a1e701)"><path fill="#58d99a" d="M 29.085938 85.304688 L 0.878906 57.097656 L 48.328125 9.652344 L 57.882812 19.207031 L 19.996094 57.097656 L 38.640625 75.746094 Z M 29.085938 85.304688 " fill-opacity="1" fill-rule="nonzero"/></g><g clip-path="url(#04b193a34e)"><path fill="#ffffff" d="M 14.851562 31.65625 L 1.339844 45.171875 L 1.339844 0 L 38.675781 0 L 42.59375 3.917969 L 32.996094 13.515625 L 14.851562 13.515625 Z M 63.632812 24.957031 L 54.074219 34.511719 L 74.132812 54.574219 L 33.886719 94.824219 L 14.851562 94.824219 L 14.851562 82.539062 L 1.339844 69.023438 L 1.339844 108.335938 L 39.488281 108.335938 L 93.25 54.574219 Z M 63.632812 24.957031 " fill-opacity="1" fill-rule="nonzero"/></g><g clip-path="url(#0a8fe6e255)"><path fill="#58d99a" d="M 47.074219 108.292969 L 96.136719 59.953125 L 96.136719 108.292969 Z M 47.074219 108.292969 " fill-opacity="1" fill-rule="nonzero"/></g><g fill="#ffffff" fill-opacity="1"><g transform="translate(101.36112, 108.028882)"><g><path d="M 31.4375 -36.625 L 31.4375 -9.15625 C 31.4375 -6.144531 30.429688 -3.863281 28.421875 -2.3125 C 26.421875 -0.769531 23.800781 0 20.5625 0 L 1.5 0 L 1.5 -48.78125 L 17.828125 -48.78125 C 20.835938 -48.78125 23.320312 -48.453125 25.28125 -47.796875 C 27.238281 -47.140625 28.753906 -45.921875 29.828125 -44.140625 C 30.898438 -42.359375 31.4375 -39.851562 31.4375 -36.625 Z M 18.859375 -11.828125 L 18.859375 -36.96875 C 18.859375 -37.875 18.59375 -38.703125 18.0625 -39.453125 C 17.539062 -40.210938 16.875 -40.59375 16.0625 -40.59375 L 14.078125 -40.59375 L 14.078125 -8.203125 L 16.0625 -8.203125 C 16.875 -8.203125 17.539062 -8.566406 18.0625 -9.296875 C 18.59375 -10.023438 18.859375 -10.867188 18.859375 -11.828125 Z M 18.859375 -11.828125 "/></g></g></g><g fill="#ffffff" fill-opacity="1"><g transform="translate(134.290833, 108.028882)"><g><path d="M 22.75 -38.953125 L 14.078125 -38.953125 L 14.078125 -30 L 22.203125 -30 L 22.203125 -20.5625 L 14.078125 -20.5625 L 14.078125 -9.84375 L 23.4375 -9.84375 L 23.4375 0 L 1.5 0 L 1.5 -48.78125 L 22.75 -48.78125 Z M 22.75 -38.953125 "/></g></g></g><g fill="#ffffff" fill-opacity="1"><g transform="translate(158.339083, 108.028882)"><g><path d="M 15.984375 -9.421875 L 16.125 -9.421875 L 19.34375 -48.78125 L 31.09375 -48.78125 L 24.46875 0 L 6.625 0 L 0.546875 -48.78125 L 13.125 -48.78125 Z M 15.984375 -9.421875 "/></g></g></g><g fill="#58d99a" fill-opacity="1"><g transform="translate(192.004631, 108.028882)"><g><path d="M 16.734375 -49.8125 C 21.472656 -49.8125 25.003906 -48.554688 27.328125 -46.046875 C 29.648438 -43.546875 30.8125 -40.3125 30.8125 -36.34375 L 30.8125 -29.171875 L 18.25 -29.171875 L 18.25 -38.734375 C 18.25 -39.691406 18.085938 -40.410156 17.765625 -40.890625 C 17.441406 -41.367188 16.847656 -41.609375 15.984375 -41.609375 C 15.253906 -41.609375 14.753906 -41.289062 14.484375 -40.65625 C 14.210938 -40.019531 14.078125 -39.335938 14.078125 -38.609375 L 14.078125 -10.1875 C 14.078125 -9.457031 14.210938 -8.769531 14.484375 -8.125 C 14.753906 -7.488281 15.253906 -7.171875 15.984375 -7.171875 C 16.847656 -7.171875 17.441406 -7.441406 17.765625 -7.984375 C 18.085938 -8.535156 18.25 -9.378906 18.25 -10.515625 L 18.25 -21.046875 L 30.8125 -21.046875 L 30.8125 -12.703125 C 30.8125 -10.203125 30.285156 -7.90625 29.234375 -5.8125 C 28.191406 -3.71875 26.585938 -2.050781 24.421875 -0.8125 C 22.265625 0.414062 19.613281 1.03125 16.46875 1.03125 C 11.59375 1.03125 7.878906 -0.128906 5.328125 -2.453125 C 2.773438 -4.773438 1.5 -8.535156 1.5 -13.734375 L 1.5 -35.046875 C 1.5 -39.878906 2.796875 -43.546875 5.390625 -46.046875 C 7.992188 -48.554688 11.773438 -49.8125 16.734375 -49.8125 Z M 16.734375 -49.8125 "/></g></g></g><g fill="#58d99a" fill-opacity="1"><g transform="translate(223.636274, 108.028882)"><g><path d="M 14.078125 -9.421875 L 22.40625 -9.421875 L 22.40625 0 L 1.5 0 L 1.5 -48.78125 L 14.078125 -48.78125 Z M 14.078125 -9.421875 "/></g></g></g><g fill="#58d99a" fill-opacity="1"><g transform="translate(246.386474, 108.028882)"><g><path d="M 14.078125 -11.28125 C 14.078125 -9.769531 14.300781 -8.773438 14.75 -8.296875 C 15.207031 -7.816406 15.78125 -7.578125 16.46875 -7.578125 C 17.144531 -7.578125 17.710938 -7.816406 18.171875 -8.296875 C 18.628906 -8.773438 18.859375 -9.769531 18.859375 -11.28125 L 18.859375 -48.78125 L 31.4375 -48.78125 L 31.4375 -13.046875 C 31.4375 -3.660156 26.445312 1.03125 16.46875 1.03125 C 6.488281 1.03125 1.5 -3.660156 1.5 -13.046875 L 1.5 -48.78125 L 14.078125 -48.78125 Z M 14.078125 -11.28125 "/></g></g></g><g fill="#58d99a" fill-opacity="1"><g transform="translate(279.316187, 108.028882)"><g><path d="M 29.71875 -40.046875 L 29.71875 -34.171875 C 29.71875 -31.566406 29 -29.738281 27.5625 -28.6875 C 26.132812 -27.644531 24.117188 -27.101562 21.515625 -27.0625 L 21.390625 -26.921875 C 24.441406 -26.734375 26.726562 -25.796875 28.25 -24.109375 C 29.78125 -22.429688 30.546875 -20.316406 30.546875 -17.765625 L 30.546875 -10.453125 C 30.546875 -6.859375 29.550781 -4.21875 27.5625 -2.53125 C 25.582031 -0.84375 22.679688 0 18.859375 0 L 1.5 0 L 1.5 -48.78125 L 19.609375 -48.78125 C 23.023438 -48.78125 25.5625 -48.070312 27.21875 -46.65625 C 28.882812 -45.25 29.71875 -43.046875 29.71875 -40.046875 Z M 15.09375 -29.796875 C 16.050781 -29.796875 16.769531 -30.085938 17.25 -30.671875 C 17.726562 -31.265625 17.96875 -31.925781 17.96875 -32.65625 L 17.96875 -38.125 C 17.96875 -38.757812 17.738281 -39.394531 17.28125 -40.03125 C 16.832031 -40.675781 16.0625 -41 14.96875 -41 L 13.671875 -41 L 13.671875 -29.796875 Z M 17.96875 -11.140625 L 17.96875 -19.46875 C 17.96875 -20.425781 17.707031 -21.15625 17.1875 -21.65625 C 16.664062 -22.15625 15.925781 -22.40625 14.96875 -22.40625 L 13.671875 -22.40625 L 13.671875 -8.203125 C 13.847656 -8.148438 14.097656 -8.125 14.421875 -8.125 C 15.515625 -8.125 16.378906 -8.351562 17.015625 -8.8125 C 17.648438 -9.269531 17.96875 -10.046875 17.96875 -11.140625 Z M 17.96875 -11.140625 "/></g></g></g></svg>